<svg xmlns="http://www.w3.org/2000/svg" viewBox="0 0 199.26 133.63"><defs><style>.cls-1{fill:#5ebfbb;}</style></defs><g id="Layer_2" data-name="Layer 2"><g id="Layer_1-2" data-name="Layer 1"><path class="cls-1" d="M154.77,133.63H9.24c-6.6,0-10.57-5.4-8.83-12L29.33,12C31.07,5.4,37.9,0,44.5,0H190c6.6,0,10.58,5.4,8.84,12L169.93,121.63C168.19,128.23,161.37,133.63,154.77,133.63Zm-88-55h16.1a15,15,0,0,1-1.9,5.6,11.81,11.81,0,0,1-3.55,3.75A14.61,14.61,0,0,1,72.54,90a23.52,23.52,0,0,1-5.6.65A20.94,20.94,0,0,1,58.34,89a16.91,16.91,0,0,1-6.2-4.65,20,20,0,0,1-3.75-7.1,30.48,30.48,0,0,1-1.25-8.9,29.86,29.86,0,0,1,1.45-9.6,22.76,22.76,0,0,1,4-7.35,17.38,17.38,0,0,1,6.15-4.7,19,19,0,0,1,8-1.65,17,17,0,0,1,9.45,2.7q4.16,2.7,6.75,8.9l18.6-7.7q-5.21-10.69-14.1-15.8a40.89,40.89,0,0,0-20.7-5.1A44.93,44.93,0,0,0,50.24,31a36.89,36.89,0,0,0-12.65,8.1,35.47,35.47,0,0,0-8.1,12.55,44.34,44.34,0,0,0-2.85,16.15A44,44,0,0,0,29.54,84a36.81,36.81,0,0,0,8.1,12.6,36.24,36.24,0,0,0,12.45,8.15,42.89,42.89,0,0,0,16,2.9,45.54,45.54,0,0,0,12.2-1.6A39.52,39.52,0,0,0,89,101.44a33.4,33.4,0,0,0,8.45-7.6,36.32,36.32,0,0,0,5.7-10.45,38.43,38.43,0,0,0,2-9.1,109.1,109.1,0,0,0,.5-10.9H66.74Zm100.5-44.4a52.16,52.16,0,0,0-11.7-4.55,47.69,47.69,0,0,0-11.7-1.55A31,31,0,0,0,133,29.89a23,23,0,0,0-8.2,5,22.62,22.62,0,0,0-5.2,7.8,26.59,26.59,0,0,0-1.85,10.15,21.35,21.35,0,0,0,1.75,9.25,17.84,17.84,0,0,0,4.6,6,23.43,23.43,0,0,0,6.5,3.85q3.65,1.45,7.45,2.65c2.13.74,4,1.4,5.45,2a16.17,16.17,0,0,1,3.65,2,6.45,6.45,0,0,1,2,2.3,6.82,6.82,0,0,1-1.75,8q-2.35,2.2-7.15,2.2a20.83,20.83,0,0,1-8.5-1.9,33.79,33.79,0,0,1-8.7-5.8l-8.4,15.8a45.37,45.37,0,0,0,26.5,8.5,38.43,38.43,0,0,0,12.35-1.85,26.33,26.33,0,0,0,9.2-5.2,21.83,21.83,0,0,0,5.7-8,27.13,27.13,0,0,0,2-10.5q0-8.59-4.45-14t-14-8.55q-2.4-.8-4.85-1.5a27.35,27.35,0,0,1-4.4-1.65,10.34,10.34,0,0,1-3.15-2.25,4.67,4.67,0,0,1-1.2-3.3,5.61,5.61,0,0,1,2.4-4.7,10.07,10.07,0,0,1,6.2-1.8,17.09,17.09,0,0,1,6.2,1.25,24.47,24.47,0,0,1,6.4,3.85Z"/></g></g></svg>