<svg xmlns="http://www.w3.org/2000/svg" viewBox="0 0 767.65 133.63"><defs><style>.cls-1{fill:#5ebfbb;}.cls-2{fill:#fff;}</style></defs><g id="Layer_2" data-name="Layer 2"><g id="Layer_1-2" data-name="Layer 1"><path class="cls-1" d="M717.75,133.63H332.93c-8,0-13.57-8.27-10.83-16.1L360.45,7.9A11.57,11.57,0,0,1,371.29,0H756.1c8,0,13.58,8.28,10.84,16.1L728.59,125.74A11.56,11.56,0,0,1,717.75,133.63Z"/><path class="cls-2" d="M412.67,47.77a24.2,24.2,0,0,0-6.4-3.85,17.05,17.05,0,0,0-6.2-1.25,10.07,10.07,0,0,0-6.2,1.8,5.61,5.61,0,0,0-2.4,4.7,4.69,4.69,0,0,0,1.2,3.3,10.34,10.34,0,0,0,3.15,2.25,27.71,27.71,0,0,0,4.4,1.65q2.44.71,4.85,1.5,9.6,3.2,14.05,8.55t4.45,14a27.13,27.13,0,0,1-1.95,10.5,21.91,21.91,0,0,1-5.7,8,26.33,26.33,0,0,1-9.2,5.2A38.39,38.39,0,0,1,394.37,106a45.4,45.4,0,0,1-26.5-8.5l8.4-15.8a33.79,33.79,0,0,0,8.7,5.8,20.87,20.87,0,0,0,8.5,1.9q4.8,0,7.15-2.2a6.67,6.67,0,0,0,2.35-5,6.75,6.75,0,0,0-.6-3,6.45,6.45,0,0,0-2-2.3,16,16,0,0,0-3.65-2c-1.5-.6-3.32-1.26-5.45-2-2.53-.8-5-1.68-7.45-2.65a23.57,23.57,0,0,1-6.5-3.85,18,18,0,0,1-4.6-6A21.35,21.35,0,0,1,371,51.17,26.79,26.79,0,0,1,372.82,41a22.62,22.62,0,0,1,5.2-7.8,23.13,23.13,0,0,1,8.2-5,31,31,0,0,1,10.85-1.8,47.69,47.69,0,0,1,11.7,1.55,51.79,51.79,0,0,1,11.7,4.55Z"/><path class="cls-2" d="M432.17,77.77a25,25,0,0,1,2.3-10.65,26.23,26.23,0,0,1,6.4-8.6,30.42,30.42,0,0,1,9.75-5.75A35.19,35.19,0,0,1,463,50.67a35.59,35.59,0,0,1,12.25,2,30.44,30.44,0,0,1,9.8,5.7,25.42,25.42,0,0,1,6.45,8.7,26.67,26.67,0,0,1,2.3,11.15,26.05,26.05,0,0,1-2.35,11.15,26.49,26.49,0,0,1-6.45,8.7,28.89,28.89,0,0,1-9.85,5.65,37.71,37.71,0,0,1-12.45,2,36.1,36.1,0,0,1-12.2-2,28.08,28.08,0,0,1-9.65-5.7,26.47,26.47,0,0,1-6.35-8.85A27.81,27.81,0,0,1,432.17,77.77Zm19.1.2a11.65,11.65,0,0,0,1,4.75,12.81,12.81,0,0,0,2.5,3.75,11,11,0,0,0,3.7,2.5,12,12,0,0,0,9.1,0,11,11,0,0,0,3.7-2.5,12.81,12.81,0,0,0,2.5-3.75,11.41,11.41,0,0,0,.95-4.65,11.21,11.21,0,0,0-.95-4.55,12.81,12.81,0,0,0-2.5-3.75,11.1,11.1,0,0,0-3.7-2.5,12,12,0,0,0-9.1,0,11.1,11.1,0,0,0-3.7,2.5,13,13,0,0,0-2.5,3.7A10.84,10.84,0,0,0,451.27,78Z"/><path class="cls-2" d="M522.27,52.57v28.9q0,9.5,9.2,9.5t9.2-9.5V52.57h18.1V85q0,10.4-6.85,15.6t-20.45,5.2q-13.61,0-20.45-5.2T504.17,85V52.57Z"/><path class="cls-2" d="M571.07,52.57h18.1V61a20.7,20.7,0,0,1,7.1-7,19.14,19.14,0,0,1,9.8-2.45h1.55a11.31,11.31,0,0,1,2,.2V69a17.2,17.2,0,0,0-7.8-1.8q-6.3,0-9.45,3.75t-3.15,11v22h-18.1Z"/><path class="cls-2" d="M656.87,69.17a16.76,16.76,0,0,0-9.5-3.2,13,13,0,0,0-4.85.9,12,12,0,0,0-3.95,2.55,11.73,11.73,0,0,0-2.65,3.9,12.91,12.91,0,0,0-.95,5.05,12.66,12.66,0,0,0,.95,4.95,12.06,12.06,0,0,0,2.6,3.9,11.4,11.4,0,0,0,4,2.55,13.33,13.33,0,0,0,4.9.9,15,15,0,0,0,9.5-3.5v15.4a32.09,32.09,0,0,1-12.7,2.9,29.94,29.94,0,0,1-10.65-1.9,27,27,0,0,1-8.9-5.45,26.7,26.7,0,0,1-6.15-8.5,26,26,0,0,1-2.3-11.05,27.57,27.57,0,0,1,2.2-11.15,26.43,26.43,0,0,1,6-8.7,27.23,27.23,0,0,1,9-5.7A30.59,30.59,0,0,1,644.67,51a26.84,26.84,0,0,1,12.2,2.8Z"/><path class="cls-2" d="M683.47,81.27q0,11.7,11,11.7a9.83,9.83,0,0,0,8.9-4.8h17.5q-5.31,17.6-26.5,17.6a34.79,34.79,0,0,1-11.9-2,26.5,26.5,0,0,1-9.25-5.55,24.72,24.72,0,0,1-6-8.6,28.66,28.66,0,0,1-2.1-11.2,31.56,31.56,0,0,1,2-11.55,24.23,24.23,0,0,1,5.7-8.75,25.2,25.2,0,0,1,9-5.55,33.85,33.85,0,0,1,11.85-1.95,33.16,33.16,0,0,1,11.7,1.95,23.69,23.69,0,0,1,8.8,5.65,24.6,24.6,0,0,1,5.5,9,36,36,0,0,1,1.9,12.05v1.9Zm21.2-10.5a11,11,0,0,0-3.7-6.1,11.48,11.48,0,0,0-13.65-.1,9.91,9.91,0,0,0-3.35,6.2Z"/><path class="cls-2" d="M40.1,61.67H79a109.1,109.1,0,0,1-.5,10.9,38.43,38.43,0,0,1-2,9.1,36.32,36.32,0,0,1-5.7,10.45,33.4,33.4,0,0,1-8.45,7.6,39.84,39.84,0,0,1-10.65,4.65A45.54,45.54,0,0,1,39.5,106a42.89,42.89,0,0,1-16-2.9A36.24,36.24,0,0,1,11,94.92a36.81,36.81,0,0,1-8.1-12.6A44,44,0,0,1,0,66.07,44.3,44.3,0,0,1,2.85,49.92,35.47,35.47,0,0,1,11,37.37a36.74,36.74,0,0,1,12.65-8.1,44.93,44.93,0,0,1,16.5-2.9,40.89,40.89,0,0,1,20.7,5.1q8.9,5.1,14.1,15.8L56.3,55q-2.59-6.19-6.75-8.9a17,17,0,0,0-9.45-2.7,19,19,0,0,0-8,1.65A17.38,17.38,0,0,0,26,49.72a22.55,22.55,0,0,0-4,7.35,29.86,29.86,0,0,0-1.45,9.6,30.48,30.48,0,0,0,1.25,8.9,20,20,0,0,0,3.75,7.1,16.91,16.91,0,0,0,6.2,4.65A20.94,20.94,0,0,0,40.3,89a24,24,0,0,0,5.6-.65,14.61,14.61,0,0,0,4.85-2.1,12,12,0,0,0,3.55-3.75,15,15,0,0,0,1.9-5.6H40.1Z"/><path class="cls-2" d="M129.3,52.57h18.2v51.3H129.3v-5.7q-5.81,7.31-15.7,7.3a25.39,25.39,0,0,1-10.3-2,24.84,24.84,0,0,1-8.2-5.75A26.5,26.5,0,0,1,89.65,89a29.74,29.74,0,0,1-2-10.9,28.83,28.83,0,0,1,1.9-10.45A26.73,26.73,0,0,1,94.9,59a24.63,24.63,0,0,1,18.5-8,20.88,20.88,0,0,1,15.9,6.7Zm-22.8,25.5a12,12,0,0,0,3.35,8.4,10.85,10.85,0,0,0,3.7,2.5,11.9,11.9,0,0,0,4.65.9,11.69,11.69,0,0,0,4.55-.9,11,11,0,0,0,3.7-2.5,13.18,13.18,0,0,0,2.5-3.7,10.84,10.84,0,0,0,1-4.5,11.18,11.18,0,0,0-1-4.55,13,13,0,0,0-2.5-3.75,11,11,0,0,0-3.7-2.5,11.69,11.69,0,0,0-4.55-.9,11.9,11.9,0,0,0-4.65.9,10.85,10.85,0,0,0-3.7,2.5,12.2,12.2,0,0,0-2.45,3.65A11,11,0,0,0,106.5,78.07Z"/><path class="cls-2" d="M159.8,52.57h18.1v6.3q7.4-7.09,16.6-7.1a19.3,19.3,0,0,1,17.4,9.6q6.09-9.7,17.4-9.7a21.71,21.71,0,0,1,6.8,1,14,14,0,0,1,5.5,3.3,15.83,15.83,0,0,1,3.65,5.85,24.85,24.85,0,0,1,1.35,8.7v33.3H228.5V78.57a31.12,31.12,0,0,0-.55-6.4,10.12,10.12,0,0,0-1.6-3.9,5.31,5.31,0,0,0-2.45-1.9,9,9,0,0,0-3-.5q-8.7,0-8.7,12.7v25.3H194.1V78.57a34.72,34.72,0,0,0-.5-6.45,12.1,12.1,0,0,0-1.45-4.05,4.89,4.89,0,0,0-2.45-2,11,11,0,0,0-6.7,0,5.6,5.6,0,0,0-2.65,2,10.55,10.55,0,0,0-1.8,4,27.42,27.42,0,0,0-.65,6.65v25.3H159.8Z"/><path class="cls-2" d="M275.3,81.27q0,11.7,11,11.7a9.83,9.83,0,0,0,8.9-4.8h17.5q-5.31,17.6-26.5,17.6a34.79,34.79,0,0,1-11.9-2,26.5,26.5,0,0,1-9.25-5.55,24.72,24.72,0,0,1-5.95-8.6,28.66,28.66,0,0,1-2.1-11.2,31.52,31.52,0,0,1,2-11.55,24.23,24.23,0,0,1,5.7-8.75,25.2,25.2,0,0,1,8.95-5.55,33.85,33.85,0,0,1,11.85-1.95,33.16,33.16,0,0,1,11.7,1.95,23.69,23.69,0,0,1,8.8,5.65,24.6,24.6,0,0,1,5.5,9,36,36,0,0,1,1.9,12.05v1.9Zm21.2-10.5a10.93,10.93,0,0,0-3.7-6.1,11.48,11.48,0,0,0-13.65-.1,9.91,9.91,0,0,0-3.35,6.2Z"/></g></g></svg>